<svg viewBox="0 0 486 486" fill="currentColor" xmlns="http://www.w3.org/2000/svg">
<g opacity="0.12">
<path d="M337.023 234.858C351.368 224.292 363.969 214.115 374.341 204.615C394.115 186.489 416.118 161.966 407.879 147.814C395.86 127.071 333.145 150.431 306.102 161.675C299.026 161.675 296.409 158.476 292.047 153.339L286.619 147.039L287.782 155.375C288.751 161.869 289.236 165.843 285.068 170.884C273.533 176.215 261.126 182.418 248.137 189.3C216.247 176.312 185.908 167.297 160.512 163.323C125.908 157.895 104.195 162.063 97.9915 175.439C91.7879 188.816 102.45 208.105 128.912 231.174C135.407 236.796 143.064 242.806 151.788 249.01C136.279 260.351 122.806 271.207 111.562 281.385C91.691 299.511 69.7847 324.034 78.0238 338.186C81.2225 343.711 88.2015 346.425 98.9608 346.425C109.72 346.425 125.326 343.42 144.034 337.507C151.303 335.181 159.155 332.37 167.976 328.978C173.501 329.85 175.827 333.049 179.607 337.895L184.745 344.39L183.969 336.054C183.387 330.044 183 325.973 186.877 321.417C202.677 314.535 219.543 306.49 236.99 297.184C288.073 320.254 338.186 334.115 371.239 334.115C390.722 334.115 403.42 329.171 407.685 319.866C416.506 300.965 389.462 268.59 337.023 234.955V234.858ZM244.745 293.016C252.208 288.945 258.897 285.262 265.197 281.578C288.654 268.008 310.851 253.759 331.013 239.22C380.351 270.334 408.558 301.449 401.385 316.861C391.595 337.895 321.805 327.039 244.648 293.016H244.745ZM184.841 314.632C178.444 314.05 176.021 310.852 172.047 305.617L166.909 299.026L167.685 307.362C168.266 313.953 168.654 318.024 163.904 323.065C155.568 326.264 148.395 328.784 141.998 330.819C104.583 342.645 87.523 340.512 84.1304 334.6C80.7378 328.687 87.3291 312.887 116.408 286.328C127.846 275.86 141.804 264.712 157.895 252.984C178.735 267.233 203.258 281.094 229.042 293.307C213.727 301.255 198.896 308.331 184.841 314.438V314.632ZM134.631 167.976C141.998 167.976 150.334 168.751 159.446 170.108C182.903 173.791 210.722 181.837 240.189 193.468C232.919 197.346 226.619 200.932 220.609 204.325C198.315 217.216 177.087 230.787 157.701 244.648C148.395 238.153 140.253 231.756 133.371 225.843C110.496 205.972 99.6393 188.137 104.195 178.347C107.297 171.659 118.056 167.976 134.534 167.976H134.631ZM233.985 288.17C208.589 276.344 184.454 262.774 163.807 248.913C182.515 235.73 202.774 222.741 224.098 210.431C232.144 205.779 240.383 201.223 248.525 196.861C257.055 200.35 264.712 203.743 271.788 207.039C290.496 215.762 308.234 225.262 324.712 235.246C305.229 249.107 284.099 262.677 261.804 275.569C254.147 280.028 245.908 284.583 236.796 289.43L233.985 288.17ZM289.139 176.796C294.761 177.378 297.281 180.383 301.255 185.035L306.683 191.239L305.52 182.903C304.745 177.184 304.163 173.307 307.168 168.848C341.869 154.308 370.27 146.36 387.33 146.36C395.084 146.36 400.125 148.008 401.869 151.207C405.359 157.119 398.671 172.919 369.591 199.478C358.832 209.268 345.746 219.834 330.722 230.884C313.372 220.124 294.567 210.044 274.696 200.738C269.074 198.121 263.161 195.504 256.473 192.693C267.523 186.974 278.477 181.643 289.139 176.796Z" fill="currentColor"/>
</g>
</svg>
