<svg viewBox="0 0 32 32" fill="currentColor" xmlns="http://www.w3.org/2000/svg">
<path d="M26.6667 14.6667C26.313 14.6667 25.9739 14.8071 25.7239 15.0572C25.4738 15.3072 25.3333 15.6464 25.3333 16V24C25.3333 24.3536 25.1929 24.6928 24.9428 24.9428C24.6928 25.1929 24.3536 25.3333 24 25.3333H8C7.64638 25.3333 7.30724 25.1929 7.05719 24.9428C6.80714 24.6928 6.66667 24.3536 6.66667 24V8C6.66667 7.64638 6.80714 7.30724 7.05719 7.05719C7.30724 6.80714 7.64638 6.66667 8 6.66667H16C16.3536 6.66667 16.6928 6.52619 16.9428 6.27614C17.1929 6.02609 17.3333 5.68696 17.3333 5.33333C17.3333 4.97971 17.1929 4.64057 16.9428 4.39052C16.6928 4.14048 16.3536 4 16 4H8C6.93913 4 5.92172 4.42143 5.17157 5.17157C4.42143 5.92172 4 6.93913 4 8V24C4 25.0609 4.42143 26.0783 5.17157 26.8284C5.92172 27.5786 6.93913 28 8 28H24C25.0609 28 26.0783 27.5786 26.8284 26.8284C27.5786 26.0783 28 25.0609 28 24V16C28 15.6464 27.8595 15.3072 27.6095 15.0572C27.3594 14.8071 27.0203 14.6667 26.6667 14.6667Z" fill="currentColor"/>
<path d="M21.3336 6.66667H23.4402L15.0536 15.04C14.9286 15.164 14.8294 15.3114 14.7617 15.4739C14.694 15.6364 14.6592 15.8107 14.6592 15.9867C14.6592 16.1627 14.694 16.337 14.7617 16.4994C14.8294 16.6619 14.9286 16.8094 15.0536 16.9333C15.1775 17.0583 15.325 17.1575 15.4875 17.2252C15.65 17.2929 15.8242 17.3277 16.0002 17.3277C16.1763 17.3277 16.3505 17.2929 16.513 17.2252C16.6755 17.1575 16.823 17.0583 16.9469 16.9333L25.3336 8.56V10.6667C25.3336 11.0203 25.4741 11.3594 25.7241 11.6095C25.9741 11.8595 26.3133 12 26.6669 12C27.0205 12 27.3597 11.8595 27.6097 11.6095C27.8598 11.3594 28.0002 11.0203 28.0002 10.6667V5.33333C28.0002 4.97971 27.8598 4.64057 27.6097 4.39052C27.3597 4.14048 27.0205 4 26.6669 4H21.3336C20.98 4 20.6408 4.14048 20.3908 4.39052C20.1407 4.64057 20.0002 4.97971 20.0002 5.33333C20.0002 5.68696 20.1407 6.02609 20.3908 6.27614C20.6408 6.52619 20.98 6.66667 21.3336 6.66667Z" fill="currentColor"/>
</svg>
