<svg
  viewBox="0 0 120 120"
  xmlns="http://www.w3.org/2000/svg"
  fill="none"
>
  <!-- Outer circle -->
  <circle
    cx="60"
    cy="60"
    r="59.5"
    fill="none"
    stroke="currentColor"
  />

  <!-- Body -->
  <path
    d="M46 57.6C46 52.362 46 49.744 47.18 47.82C47.8395 46.7441 48.7441 45.8395 49.82 45.18C51.744 44 54.362 44 59.6 44H60.4C65.638 44 68.256 44 70.18 45.18C71.2559 45.8395 72.1605 46.7441 72.82 47.82C74 49.744 74 52.362 74 57.6V64C74 65.858 74 66.786 73.898 67.566C73.5534 70.1853 72.3539 72.6177 70.4858 74.4858C68.6177 76.3539 66.1853 77.5534 63.566 77.898C62.786 78 61.86 78 60 78C58.14 78 57.214 78 56.434 77.898C53.8147 77.5534 51.3823 76.3539 49.5142 74.4858C47.6461 72.6177 46.4466 70.1853 46.102 67.566C46 66.786 46 65.86 46 64V57.6Z"
    stroke="currentColor"
    stroke-linejoin="round"
  />

  <!-- Stem -->
  <path
    d="M60 44V54"
    stroke="currentColor"
    stroke-linecap="round"
  />

  <!-- Inner fill -->
  <path
    opacity="0.66"
    d="M49 50C49 47.7909 50.7909 46 53 46H58V55H49V50Z"
    fill="currentColor"
  />
</svg>
