<svg viewBox="0 0 207 98" fill="currentColor" xmlns="http://www.w3.org/2000/svg">
<path d="M202.245 21.2115C192.965 14.1218 169.102 11.2974 136.881 13.3725C134.748 13.3148 132.904 13.0266 131.578 12.5655C130.541 12.162 129.1 11.2398 128.12 9.04947C127.082 6.85915 126.391 1.78684 126.218 0L123.336 0.288201C123.509 2.07504 123.739 7.14735 123.105 9.51059C122.529 11.8162 121.261 12.969 120.396 13.5454C118.494 14.5829 115.958 15.2169 114.286 15.5051C109.675 16.0815 105.006 16.7156 100.222 17.5225C41.487 27.0331 -1.57001 45.8237 0.0439044 61.2712C0.332104 63.865 1.7731 66.2282 4.42454 68.188C7.01833 70.1478 10.8226 71.8193 15.7796 73.145C15.2032 74.586 14.9726 76.027 15.0879 77.4104C15.2608 80.4076 16.8171 83.1167 19.6991 85.5952C28.4604 93.0308 50.133 97.4691 77.6848 97.4691C86.6767 97.4691 95.899 97.008 105.237 96.0857C154.692 91.1863 192.676 75.393 191.639 60.1184C191.466 57.1211 189.91 54.4121 187.028 51.9335C186.221 51.2419 185.241 50.5502 184.203 49.9162C195.501 44.498 207.548 36.6013 206.683 28.1283C206.395 25.5345 204.954 23.1712 202.302 21.2115H202.245ZM105.755 67.9574C103.104 68.3609 100.51 68.7644 97.9165 69.1679C96.706 69.1679 95.6685 68.9373 94.8615 68.7068C94.1122 68.4186 93.0747 67.7845 92.2677 66.2282C91.4608 64.5567 90.8267 60.6948 90.6538 59.3691L87.7718 59.7149C87.9447 61.0406 88.2329 64.9602 87.8295 66.747C87.426 68.4186 86.5614 69.3408 85.985 69.7443C85.178 70.2054 84.1982 70.6089 83.1606 70.9547C58.606 73.4909 36.53 73.3756 21.9471 70.6089C31.8611 59.4844 64.6006 49.1092 101.836 45.4202C111.116 44.498 120.281 44.0369 129.157 44.0369C147.602 44.0369 163.799 46.1696 174.52 49.8585C156.19 57.3517 131.924 63.7497 105.755 67.9574ZM19.5838 74.0673C27.8263 75.7965 38.4321 76.7187 50.4212 76.7187C60.7387 76.7187 72.4973 76.027 85.351 74.6437C85.7544 74.7013 86.2155 74.8166 86.5614 74.8742C87.3107 75.1624 88.3482 75.7965 89.1552 77.3527C89.9621 79.0243 90.5962 82.8862 90.7691 84.2119L93.6511 83.8661C93.4782 82.5403 93.19 78.6208 93.5935 76.834C93.9969 75.0471 94.9768 74.1825 95.4379 73.8367C95.7838 73.6061 96.1872 73.4332 96.5907 73.2603L97.6282 73.145C100.51 72.7415 103.392 72.3957 106.332 71.877C134.864 67.2658 160.859 60.2337 179.592 51.9912C181.725 53.0287 183.281 54.0086 184.434 54.9308C186.451 56.66 187.546 58.5045 187.662 60.349C188.411 71.6464 155.268 87.1515 104.776 92.1662C67.1367 95.9128 33.1868 91.9356 22.1776 82.598C20.1602 80.8688 19.0651 79.0243 18.9498 77.1798C18.8922 76.1999 19.1227 75.1624 19.5838 74.0673ZM179.707 47.6105C163.741 40.6361 133.884 38.2729 101.49 41.4431C61.3727 45.4202 27.3652 56.9482 17.797 69.629C12.84 68.3609 9.15101 66.8623 6.78777 65.0178C5.05857 63.6921 4.13634 62.3087 3.96342 60.8101C2.75298 49.5127 41.4293 31.0103 100.914 21.3844C106.447 20.5198 112.154 19.7128 118.955 18.9059C119.647 19.0212 120.338 19.1941 120.972 19.367C122.01 19.7705 123.451 20.6927 124.431 22.883C125.468 25.0734 126.16 30.1457 126.333 31.9325L129.215 31.6443C129.042 29.8575 128.811 24.7852 129.445 22.4219C130.022 20.1163 131.29 18.9635 132.155 18.3871C132.731 18.0413 133.423 17.7531 134.287 17.4649C142.703 16.8308 149.965 16.5426 156.479 16.5426C177.632 16.5426 193.483 19.367 199.939 24.2664C201.668 25.5921 202.648 27.0331 202.763 28.5317C203.34 33.8346 194.982 40.7514 179.765 47.6105H179.707Z" fill="currentColor"/>
</svg>
