<svg viewBox="0 0 283 283" fill="currentColor" xmlns="http://www.w3.org/2000/svg">
<path d="M215.837 117.161L117.931 66.3631C117.931 66.3631 117.307 66.3253 117.161 66.607L66.3631 164.512C66.3631 164.512 66.3254 165.136 66.607 165.283L164.526 216.123C164.526 216.123 164.837 216.213 164.965 216.173C165.094 216.132 165.208 216.048 165.296 215.879L216.123 117.918C216.123 117.918 216.161 117.294 215.879 117.148L215.837 117.161ZM213.135 118.441L164.003 213.135L69.3085 164.003L118.441 69.3085L213.135 118.441Z" fill="currentColor"/>
<path d="M118.476 70.7568L73.2602 157.903C73.2602 157.903 73.2225 158.527 73.5041 158.673L160.706 203.918C160.706 203.918 161.017 204.007 161.146 203.967C161.274 203.926 161.389 203.843 161.476 203.674L206.721 116.471C206.721 116.471 206.759 115.847 206.477 115.701L119.246 70.5128C119.246 70.5128 118.622 70.4751 118.476 70.7568ZM76.2056 157.393L119.769 73.5011L203.704 117.051L160.154 200.986L76.2056 157.393Z" fill="currentColor"/>
<path d="M197.003 114.325L120.56 74.6624C120.56 74.6624 119.936 74.6247 119.79 74.9064L80.128 151.349C80.128 151.349 80.0903 151.973 80.372 152.119L156.815 191.782C156.815 191.782 157.126 191.871 157.254 191.831C157.382 191.79 157.497 191.707 157.585 191.538L197.247 115.095C197.247 115.095 197.337 114.784 197.296 114.656C197.256 114.527 197.172 114.412 197.003 114.325ZM194.259 115.618L156.292 188.793L83.1163 150.826L121.083 77.6507L194.259 115.618Z" fill="currentColor"/>
<path d="M121.105 79.056L87.0251 144.739C87.0251 144.739 86.9874 145.363 87.2691 145.509L152.952 179.589C152.952 179.589 153.263 179.679 153.392 179.638C153.52 179.598 153.635 179.514 153.723 179.345L187.802 113.662C187.802 113.662 187.84 113.038 187.558 112.892L121.875 78.8121C121.875 78.8121 121.251 78.7743 121.105 79.056ZM90.0134 144.216L122.398 81.8003L184.814 114.185L152.43 176.601L90.0134 144.216Z" fill="currentColor"/>
<path d="M178.113 111.459L123.189 82.9618C123.189 82.9618 122.566 82.9241 122.419 83.2058L93.9222 138.13C93.9222 138.13 93.8845 138.754 94.1662 138.9L149.09 167.397C149.09 167.397 149.401 167.487 149.529 167.446C149.658 167.405 149.772 167.322 149.86 167.153L178.357 112.229C178.357 112.229 178.447 111.918 178.407 111.79C178.366 111.661 178.282 111.547 178.113 111.459ZM175.369 112.752L148.567 164.409L96.9105 137.607L123.712 85.95L175.369 112.752Z" fill="currentColor"/>
<path d="M123.748 87.3982L100.833 131.563C100.833 131.563 100.743 131.874 100.784 132.002C100.824 132.13 100.908 132.245 101.077 132.333L145.241 155.247C145.241 155.247 145.552 155.337 145.681 155.297C145.809 155.256 145.924 155.172 146.011 155.003L168.926 110.839C168.926 110.839 169.016 110.528 168.975 110.4C168.935 110.271 168.851 110.157 168.682 110.069L124.518 87.1542C124.518 87.1542 123.894 87.1165 123.748 87.3982ZM103.808 130.997L125.027 90.0997L165.924 111.319L144.705 152.216L103.808 130.997Z" fill="currentColor"/>
<path d="M159.237 108.636L125.832 91.3039C125.832 91.3039 125.208 91.2662 125.062 91.5478L107.73 124.953C107.73 124.953 107.692 125.577 107.974 125.723L141.379 143.055C141.379 143.055 141.69 143.145 141.818 143.104C141.946 143.064 142.061 142.98 142.149 142.811L159.481 109.406C159.481 109.406 159.571 109.095 159.53 108.967C159.49 108.839 159.406 108.724 159.237 108.636ZM156.493 109.929L140.856 140.067L110.718 124.43L126.355 94.2921L156.493 109.929Z" fill="currentColor"/>
<path d="M126.377 95.6975L114.627 118.343C114.627 118.343 114.589 118.967 114.871 119.113L137.517 130.863C137.517 130.863 137.827 130.953 137.956 130.912C138.084 130.871 138.199 130.788 138.287 130.619L150.036 107.973C150.036 107.973 150.126 107.662 150.085 107.534C150.045 107.406 149.961 107.291 149.792 107.203L127.147 95.4535C127.147 95.4535 126.523 95.4158 126.377 95.6975ZM117.615 117.82L127.67 98.4418L147.048 108.496L136.994 127.874L117.615 117.82Z" fill="currentColor"/>
<path d="M140.347 105.77L128.461 99.6032C128.461 99.6032 127.837 99.5654 127.691 99.8471L121.524 111.733C121.524 111.733 121.486 112.357 121.768 112.503L133.654 118.67C133.654 118.67 133.965 118.76 134.093 118.719C134.222 118.679 134.337 118.595 134.424 118.426L140.591 106.54C140.591 106.54 140.629 105.916 140.347 105.77ZM137.603 107.063L133.131 115.682L124.512 111.21L128.984 102.591L137.603 107.063Z" fill="currentColor"/>
</svg>
