<svg viewBox="0 0 343 343" fill="currentColor" xmlns="http://www.w3.org/2000/svg">
<g opacity="0.12">
<path d="M289.772 293.296C289.78 293.246 289.826 293.214 289.826 293.161C289.826 293.089 289.768 293.044 289.752 292.977C289.738 292.908 289.771 292.836 289.739 292.77L172.267 49.4449C172.261 49.433 172.243 49.4386 172.236 49.4273C172.233 49.421 172.225 49.4196 172.222 49.414C172.196 49.3676 172.169 49.3373 172.136 49.2966C172.098 49.2488 172.063 49.2171 172.016 49.1784C171.979 49.1461 171.954 49.1187 171.912 49.0934C171.893 49.0821 171.884 49.0589 171.864 49.0491C171.858 49.0463 171.858 49.0385 171.852 49.0364C171.842 49.0308 171.829 49.0392 171.818 49.035C171.807 49.0301 171.802 49.0167 171.789 49.0125C171.788 49.0118 171.791 49.0132 171.789 49.0125C171.767 49.0041 171.743 49.0188 171.721 49.0125C171.698 49.0062 171.689 48.9795 171.665 48.9745C171.632 48.9675 171.611 48.9949 171.578 48.9914C171.548 48.9879 171.53 48.9577 171.498 48.9577C171.469 48.9577 171.452 48.9865 171.424 48.9893C171.394 48.9921 171.368 48.9647 171.338 48.971C171.314 48.976 171.305 49.0027 171.281 49.0097C171.259 49.0146 171.24 48.9985 171.218 49.0055C171.215 49.0069 171.213 49.0118 171.21 49.0132C171.2 49.0167 171.194 49.0308 171.184 49.035C171.171 49.0406 171.157 49.0294 171.144 49.0357C171.141 49.0371 171.141 49.0399 171.139 49.0413C171.12 49.0505 171.113 49.0751 171.095 49.0849C171.039 49.1166 170.996 49.1475 170.948 49.1911C170.914 49.2227 170.893 49.253 170.863 49.2895C170.829 49.3303 170.803 49.3613 170.777 49.407C170.769 49.4203 170.751 49.4238 170.743 49.4372C170.741 49.4414 170.734 49.4393 170.732 49.4435C170.732 49.4449 170.728 49.4527 170.727 49.4541L170.723 49.4646C170.722 49.466 170.723 49.4632 170.723 49.4646L170.697 49.5166L53.2641 292.77C53.2327 292.835 53.2655 292.903 53.2504 292.971C53.2333 293.04 53.1738 293.088 53.1738 293.162C53.1738 293.215 53.2203 293.248 53.2292 293.298C53.2477 293.413 53.2894 293.495 53.349 293.594C53.4092 293.694 53.4618 293.77 53.5542 293.838C53.5945 293.87 53.6028 293.927 53.6493 293.952C53.7731 294.014 53.9031 294.041 54.0303 294.041H288.973C289.042 294.041 289.086 293.982 289.15 293.966C289.218 293.951 289.289 293.985 289.354 293.952C289.4 293.928 289.408 293.871 289.448 293.84C289.541 293.771 289.595 293.694 289.655 293.594C289.713 293.494 289.754 293.411 289.772 293.296ZM280.004 292.282L226.804 172.377H229.703L287.589 292.282H280.004ZM55.4074 292.282L113.294 172.377H115.789L62.2026 292.282H55.4074ZM147.636 170.62H130.77L168.434 61.3632L147.636 170.62ZM170.643 58.9178V170.62H149.378L170.643 58.9178ZM172.354 59.294L192.673 170.62H172.354V59.294ZM194.416 170.62L174.456 61.2676L211.415 170.62H194.416ZM213.226 170.62L178.304 67.2911L224.152 170.62H213.226ZM226.025 170.62L193.901 98.2177L228.855 170.62H226.025ZM128.957 170.62H118.458L164.37 67.8873L128.957 170.62ZM117.673 172.377H128.351L87.0156 292.282H64.0845L117.673 172.377ZM130.164 172.377H147.302L124.481 292.282H88.8291L130.164 172.377ZM149.044 172.377H170.643V292.282H126.223L149.044 172.377ZM172.354 172.377H192.994L214.886 292.282H172.354V172.377ZM194.737 172.377H212.009L252.535 292.282H216.63L194.737 172.377ZM213.821 172.377H224.931L278.131 292.282H254.346L213.821 172.377ZM116.575 170.62H114.142L146.903 102.759L116.575 170.62Z" fill="currentColor"/>
</g>
</svg>
