<svg viewBox="0 0 243 243" fill="currentColor" xmlns="http://www.w3.org/2000/svg">
<g opacity="0.5">
<path d="M121.504 205.741C169.243 205.741 208.081 167.953 208.081 121.504C208.081 75.0548 169.243 37.2625 121.504 37.2625C73.7645 37.2625 34.9219 75.0548 34.9219 121.504C34.9219 167.953 73.7645 205.741 121.504 205.741ZM121.504 39.6857C167.869 39.6857 205.591 76.3895 205.591 121.504C205.591 166.616 167.869 203.318 121.504 203.318C75.1363 203.318 37.413 166.616 37.413 121.504C37.4125 76.3895 75.1363 39.6857 121.504 39.6857Z" fill="currentColor"/>
<path d="M181.139 128.733C181.215 128.733 181.29 128.741 181.366 128.752C182.042 128.873 182.489 129.505 182.368 130.163C176.874 159.431 146.313 179.092 121.217 179.092C96.36 179.092 65.9814 160.26 60.3876 132.226C60.2561 131.569 60.6939 130.932 61.3704 130.804C62.0707 130.678 62.7033 131.107 62.8298 131.762C68.1124 158.227 97.839 176.669 121.218 176.669C145.311 176.669 174.648 157.805 179.917 129.727C180.026 129.143 180.551 128.733 181.139 128.733Z" fill="currentColor"/>
<path d="M103.131 121.045C108.278 121.045 111.055 112.095 111.055 103.67C111.055 95.2502 108.278 86.3 103.131 86.3C97.9796 86.3 95.2021 95.2502 95.2021 103.67C95.2021 112.095 97.9796 121.045 103.131 121.045ZM103.131 88.7233C105.694 88.7233 108.565 95.1174 108.565 103.67C108.565 112.227 105.694 118.622 103.131 118.622C100.563 118.622 97.6927 112.228 97.6927 103.67C97.6927 95.1178 100.563 88.7233 103.131 88.7233Z" fill="currentColor"/>
<path d="M139.877 121.045C145.026 121.045 147.803 112.095 147.803 103.67C147.803 95.2502 145.026 86.3 139.877 86.3C134.728 86.3 131.95 95.2502 131.95 103.67C131.95 112.095 134.728 121.045 139.877 121.045ZM139.877 88.7233C142.443 88.7233 145.313 95.1174 145.313 103.67C145.313 112.227 142.443 118.622 139.877 118.622C137.311 118.622 134.441 112.228 134.441 103.67C134.44 95.1178 137.31 88.7233 139.877 88.7233Z" fill="currentColor"/>
</g>
</svg>
