<svg viewBox="0 0 417 417" fill="currentColor" xmlns="http://www.w3.org/2000/svg">
<g opacity="0.12">
<path d="M98.2336 328.692H318.767C320.229 327.157 321.649 325.585 323.043 323.99H93.957C95.3512 325.585 96.771 327.157 98.2336 328.692Z" fill="currentColor"/>
<path d="M208.501 83.1469C125.498 83.1469 58.2122 148.614 58.2122 229.374H358.789C358.789 148.614 291.502 83.1469 208.501 83.1469Z" fill="currentColor"/>
<path d="M103.397 333.853H313.605C314.05 333.431 314.507 333.021 314.947 332.592H102.054C102.493 333.021 102.952 333.431 103.397 333.853Z" fill="currentColor"/>
<path d="M64.3275 270.662H352.673C355.023 262.883 356.724 254.837 357.72 246.578H59.2808C60.2757 254.837 61.9768 262.883 64.3275 270.662Z" fill="currentColor"/>
<path d="M88.3941 317.268H328.607C330.59 314.706 332.47 312.064 334.279 309.376H82.7217C84.533 312.065 86.411 314.706 88.3941 317.268Z" fill="currentColor"/>
<path d="M77.0824 300.314H339.917C342.964 294.983 345.663 289.441 348.017 283.728H68.9824C71.3365 289.441 74.036 294.983 77.0824 300.314Z" fill="currentColor"/>
</g>
</svg>
